<?xml version="1.0" encoding="UTF-8"?>
<svg width="248px" height="437px" viewBox="0 0 248 437" version="1.1" xmlns="http://www.w3.org/2000/svg" xmlns:xlink="http://www.w3.org/1999/xlink">
    <!-- Generator: Sketch 48.2 (47327) - http://www.bohemiancoding.com/sketch -->
    <title>spid-usericon</title>
    <desc>Created with Sketch.</desc>
    <defs></defs>
    <g id="Page-1" stroke="none" stroke-width="1" fill="none" fill-rule="evenodd">
        <g id="spid-usericon" fill="#F5F6F7" fill-rule="nonzero">
            <path d="M125.192308,255 C88.826923,255 58.870192,242.80758 35.322115,218.125364 C11.774038,193.591837 0,163.110787 0,126.830904 C0,90.402332 11.774038,60.218659 35.173077,36.131195 C58.572115,12.043732 88.379808,0 124.894231,0 C161.259615,0 190.918269,12.19242 213.721154,37.023324 C236.524038,61.705539 248,92.037901 248,128.466472 C248,164.597668 236.524038,194.781341 213.721154,218.868805 C190.918269,242.80758 161.557692,255 125.192308,255" id="XMLID_2_"></path>
            <path d="M0,435.344907 C0,398.481481 11.774038,367.9375 35.024038,343.5625 C58.423077,319.1875 88.230769,307 125.043269,307 C161.408654,307 191.067308,319.337963 213.721154,344.465278 C236.524038,369.592593 248,400.287037 248,437" id="XMLID_1_"></path>
        </g>
    </g>
</svg>